<svg height="512" viewBox="0 0 512 512" width="512" xmlns="http://www.w3.org/2000/svg"><g id="Flat"><path d="m320 24h128a8 8 0 0 1 8 8v40a0 0 0 0 1 0 0h-144a0 0 0 0 1 0 0v-40a8 8 0 0 1 8-8z" fill="#f35244"/><path d="m488 280v184a24 24 0 0 1 -24 24h-160a24 24 0 0 1 -24-24v-184a103.586 103.586 0 0 1 10.44-45.47 257.458 257.458 0 0 0 24.79-90.05 274.617 274.617 0 0 0 -2.72-69.44l-.51-3.04h144l-.51 3.04a278.017 278.017 0 0 0 -3.28 28.96 269.907 269.907 0 0 0 2.39 55.91 255.59 255.59 0 0 0 22.96 74.62 103.586 103.586 0 0 1 10.44 45.47z" fill="#ead7bc"/><path d="m448 112h-104a8 8 0 0 1 0-16h104a8 8 0 0 1 0 16z" fill="#fae5c9"/><path d="m488 280v184a24 24 0 0 1 -24 24h-160a24 24 0 0 1 -24-24v-184a103.586 103.586 0 0 1 10.44-45.47 257.458 257.458 0 0 0 24.79-90.05 21.022 21.022 0 0 1 2.88-.41 23.989 23.989 0 0 1 25.81 22.11 23.995 23.995 0 0 1 24.92-4.49 24 24 0 0 1 43.16-6.95 24 24 0 0 1 42.6 5.17 255.59 255.59 0 0 0 22.96 74.62 103.586 103.586 0 0 1 10.44 45.47z" fill="#a44233"/><path d="m456 288v144a24.006 24.006 0 0 1 -24 24h-96a24.006 24.006 0 0 1 -24-24v-144a72 72 0 0 1 122.91-50.91 73.314 73.314 0 0 1 7.66 9.02 71.722 71.722 0 0 1 13.43 41.89z" fill="#f35244"/><path d="m456 288v32.55l-144 59.59v-80l130.57-54.03a71.722 71.722 0 0 1 13.43 41.89z" fill="#ffb531"/><path d="m360 384h48v16h-48z" fill="#c84431"/><path d="m352 416h64v16h-64z" fill="#c84431"/><path d="m360 272h48v40h-48z" fill="#fedb6d"/><path d="m279.6 368v28.36a111.853 111.853 0 0 1 -47.6 91.64h-160.4a111.853 111.853 0 0 1 -47.6-91.64v-28.36z" fill="#ead7bc"/><path d="m279.6 368v28.36a111.853 111.853 0 0 1 -47.6 91.64h-123.27c51.06-24.3 91.05-63.33 120.25-120z" fill="#e5d2b8"/><path d="m50.7 417.97a87.92 87.92 0 0 1 -2.613-17.605l15.984-.73a71.945 71.945 0 0 0 2.139 14.395z" fill="#fae5c9"/><path d="m77.347 461.958a87.828 87.828 0 0 1 -20.547-27.286l14.4-6.972a71.946 71.946 0 0 0 16.822 22.341z" fill="#fae5c9"/><path d="m215.6 328v-16a16 16 0 0 0 -16-16h-16v-16a16 16 0 0 0 -16-16h-31.6a16 16 0 0 0 -16 16v16h-16a16 16 0 0 0 -16 16v16h-16a16 16 0 0 0 -16 16v24h191.6v-24a16 16 0 0 0 -16-16z" fill="#a44233"/><path d="m152 344h-16v-16a16.019 16.019 0 0 1 16-16h16v16h-16z" fill="#8f3325"/></g></svg>