<svg height="512" viewBox="0 0 512 512" width="512" xmlns="http://www.w3.org/2000/svg"><g id="Flat"><path d="m488 216a38.633 38.633 0 0 1 -11.31 27.31l-233.38 233.38a38.627 38.627 0 0 1 -54.62 0l-153.38-153.38a38.627 38.627 0 0 1 0-54.62l233.38-233.38a38.627 38.627 0 0 1 54.62 0l42.04 42.04a26.363 26.363 0 0 0 37.3 0 18.236 18.236 0 0 0 5.35-12.93v-.42a40 40 0 1 1 40 40h-.42a18.236 18.236 0 0 0 -12.93 5.35 26.375 26.375 0 0 0 0 37.3l8.36 8.36 33.68 33.68a38.633 38.633 0 0 1 11.31 27.31z" fill="#92563a"/><path d="m488 216a38.633 38.633 0 0 1 -11.31 27.31l-233.38 233.38a38.627 38.627 0 0 1 -54.62 0l-153.38-153.38a38.627 38.627 0 0 1 0-54.62l13.25-13.25c124.49 15.4 269.18-4.08 394.45-100.43l33.68 33.68a38.633 38.633 0 0 1 11.31 27.31z" fill="#875036"/><circle cx="448" cy="64" fill="#6e3d26" r="16"/><path d="m318.7 138.1c-12.31 47.17-36.42 89.7-69.71 122.99-33.79 33.79-75.57 56.63-120.83 66.07a39.949 39.949 0 0 1 -46.14-26.6 38.926 38.926 0 0 1 -1.18-4.4 40 40 0 0 1 31-47.32c29.97-6.25 57.84-21.57 80.58-44.32 23.25-23.25 40.15-53.2 48.88-86.62a39.992 39.992 0 0 1 48.8-28.6c.87.23 1.73.48 2.57.77a39.986 39.986 0 0 1 26.03 48.03z" fill="#66934c"/><path d="m318.7 138.1c-12.31 47.17-36.42 89.7-69.71 122.99-33.79 33.79-75.57 56.63-120.83 66.07a39.949 39.949 0 0 1 -46.14-26.6c102.9-27.81 168.35-89.59 210.65-210.49a39.986 39.986 0 0 1 26.03 48.03z" fill="#638f43"/><circle cx="224" cy="384" fill="#79ad54" r="40"/><circle cx="256" cy="352" fill="#66934c" r="40"/><circle cx="288" cy="320" fill="#79ad54" r="40"/><circle cx="320" cy="288" fill="#66934c" r="40"/><circle cx="352" cy="256" fill="#79ad54" r="40"/><circle cx="384" cy="224" fill="#66934c" r="40"/><path d="m267.841 163.194-14.67-6.388c2.193-5.035 4.227-10.23 6.048-15.443l15.105 5.274c-1.951 5.588-4.133 11.163-6.483 16.557z" fill="#74a15a"/><path d="m223.907 229.536-11.551-11.072a208.068 208.068 0 0 0 33.361-46.225l14.121 7.522a224.042 224.042 0 0 1 -35.931 49.775z" fill="#74a15a"/><g fill="#537d3a"><path d="m112 272h16v16h-16z"/><path d="m144 280h16v16h-16z"/><path d="m184 248h16v16h-16z"/></g></g></svg>