<svg height="512" viewBox="0 0 512 512" width="512" xmlns="http://www.w3.org/2000/svg"><g id="Flat"><path d="m264 64.971a16.97 16.97 0 0 0 -16.97-16.971 16.972 16.972 0 0 0 -12 4.971l-.314.314a6.277 6.277 0 0 1 -10.716-4.438v-8.4c0-8.615-6.621-16.029-15.227-16.434a16 16 0 0 0 -16.773 15.987v8.847a6.277 6.277 0 0 1 -10.715 4.438 17.551 17.551 0 0 0 -12.235-5.285 16.97 16.97 0 0 0 -17.05 16.97 16.971 16.971 0 0 0 4.97 12l24 24a16.971 16.971 0 0 0 -28.97 12 16.968 16.968 0 0 0 4.971 12l24 24a16.971 16.971 0 0 0 -28.97 12 16.967 16.967 0 0 0 4.971 12l51.028 51.03 51.03-51.03a16.971 16.971 0 0 0 4.97-12 16.97 16.97 0 0 0 -16.97-16.97 16.975 16.975 0 0 0 -12 4.97l24-24a16.971 16.971 0 0 0 4.97-12 16.97 16.97 0 0 0 -16.97-16.97 16.975 16.975 0 0 0 -12 4.97l24-24a16.967 16.967 0 0 0 4.97-11.999z" fill="#66934c"/><path d="m200 88h16v184h-16z" fill="#74a15a"/><path d="m494.855 76.568-10.229-12.303-32.823 27.294 20.455-36.743-13.979-7.783-31.279 56.634 16.333 16z" fill="#85a33e"/><path d="m448.99 129.791a30.528 30.528 0 0 1 -7.92 20.54 307.118 307.118 0 0 1 -31.51 30.23l-68.26 56.76a15.141 15.141 0 0 1 -22.24-20.1l22.83-33.841 9.05-13.419 10.6-15.72 7.17-10.631c.62-.919 1.24-1.829 1.88-2.739q5.43-7.891 11.36-15.43c3.29-4.2 6.71-8.3 10.22-12.32 1.14-1.31 2.29-2.6 3.45-3.89a30.645 30.645 0 0 1 53.37 20.56z" fill="#f36100"/><g fill="#eb5600"><path d="m411.64 130.641-10.7 11.89-18.99-17.09c3.29-4.2 6.71-8.3 10.22-12.32z"/><path d="m388.14 156.6-10.67 11.91-15.93-14.27 7.17-10.631c.62-.919 1.24-1.829 1.88-2.739z"/><path d="m364.73 182.641-10.83 11.78-12.01-11.041 9.05-13.419z"/></g><path d="m413.486 34.476-13.495-8.596-21.656 34.002 8.103-42.38-15.716-3.004-12.607 63.609 22.885 8.643z" fill="#85a33e"/><path d="m391.79 107.2a30.65 30.65 0 0 1 -1.67 9.95q-3.54 10.335-7.82 20.39t-9.25 19.79l-40.43 79.05a15.138 15.138 0 0 1 -28.35-9.73l7.64-39.95 3.04-15.87 3.62-18.95 2.38-12.44c.22-1.15.44-2.29.68-3.43q1.875-9.285 4.33-18.44 2.07-7.74 4.55-15.36c.53-1.66 1.09-3.31 1.65-4.96a30.646 30.646 0 0 1 59.63 9.95z" fill="#fa6d00"/><path d="m355.31 110.62-5.14 15.15-24.21-8.2q2.07-7.74 4.55-15.36z" fill="#eb5600"/><path d="m343.98 143.75-5.24 15.12-20.17-6.99 2.38-12.44c.22-1.15.44-2.29.68-3.43z" fill="#eb5600"/><path d="m332.58 176.86-5.18 15.14-15.49-5.3 3.04-15.87z" fill="#eb5600"/><path d="m272 208h56v-160h-32v112l-24 24z" fill="#85a33e"/><path d="m328 208a32 32 0 0 1 -64 0v-184h32v110.39a73 73 0 0 0 16 45.61l11 13.75a22.8 22.8 0 0 1 5 14.25z" fill="#8fb045"/><path d="m328 208a32 32 0 0 1 -64 0v-110.86l32-22.85v60.1a73 73 0 0 0 16 45.61l11 13.75a22.8 22.8 0 0 1 5 14.25z" fill="#a4c45a"/><path d="m189.054 141.106a16.318 16.318 0 0 0 -22.176-7.292 16.6 16.6 0 0 0 -8.081 9.831l9.24-30.037a26.87 26.87 0 0 0 -.476-14.893 16.318 16.318 0 0 0 -22.176-7.291 16.6 16.6 0 0 0 -8.082 9.831l9.24-30.037a26.851 26.851 0 0 0 -.476-14.893 16.318 16.318 0 0 0 -22.176-7.291 16.6 16.6 0 0 0 -8.081 9.831l-.1.309a6.1 6.1 0 0 1 -11.268.965l-3.918-7.727a15.385 15.385 0 0 0 -20.904-6.877 16.009 16.009 0 0 0 -6.578 21.386l4.074 8.035a6.1 6.1 0 0 1 -7.345 8.551 16.615 16.615 0 0 0 -12.856.885 16.978 16.978 0 0 0 -7.05 22.721 16.694 16.694 0 0 0 9.643 8.343l31.361 10.312a16.054 16.054 0 0 0 -12.532 1.053 16.98 16.98 0 0 0 -6.978 22.679 16.691 16.691 0 0 0 9.641 8.347l31.361 10.313a16.052 16.052 0 0 0 -12.533 1.052 16.982 16.982 0 0 0 -6.976 22.688 16.7 16.7 0 0 0 9.642 8.344l66.682 21.925 20.981-68.207a17.246 17.246 0 0 0 -1.103-12.856z" fill="#79ad54"/><path d="m141.474 92.21h16v182.193h-16z" fill="#89ba66" transform="matrix(.892 -.452 .452 .892 -66.738 87.41)"/><path d="m328 168v288h-240v-288l24 16 24-16 24 16 24-16 24 16 24-16 24 16 24-16 24 16z" fill="#ffb531"/><path d="m328 239.68v216.32h-240v-30.15c88.17-43.08 171.4-103.59 240-186.17z" fill="#fcac1f"/><path d="m424 168v288h-96v-288l24 16 24-16 24 16z" fill="#f98500"/><path d="m424 444.68v11.32h-11.32l-36.68-36.69-36.68 36.69h-11.32v-11.32l40-39.99v-204.69h16v204.69z" fill="#e66b00"/><path d="m56.392 488a20.062 20.062 0 0 1 -19.98-16.341l-12.026-69.659c-2.831-16.4 10.268-31.329 27.49-31.329 15.391 0 27.868 12.046 27.868 26.905v67.883c0 12.447-10.455 22.541-23.352 22.541z" fill="#de4132"/><path d="m136 312c-33.561 0-60.767 26.266-60.767 58.667l.256 29.333h50.383v-19.556l-5.933-11.455c-7.559-14.6.025-32.273 16.061-37.433z" fill="#79ad54"/><path d="m143.608 488c-12.9 0-23.352-10.094-23.352-22.545v-67.883c0-14.859 12.477-26.905 27.868-26.905 17.222 0 30.321 14.929 27.49 31.329l-12.026 69.663a20.062 20.062 0 0 1 -19.98 16.341z" fill="#de4132"/><path d="m97 370.667h6a27.383 27.383 0 0 1 27.383 27.383v60.1a29.854 29.854 0 0 1 -29.853 29.85h-1.06a29.854 29.854 0 0 1 -29.854-29.854v-60.1a27.383 27.383 0 0 1 27.384-27.379z" fill="#f35244"/></g></svg>