<svg height="512" viewBox="0 0 512 512" width="512" xmlns="http://www.w3.org/2000/svg"><g id="Flat"><path d="m480 72.04a27.464 27.464 0 0 0 -34.76-3.35l-153.22 103.33-68.09 45.93a47.319 47.319 0 0 1 -20.81 36.76l-2.24 1.52a27.545 27.545 0 0 1 -11.81 27.3 28.62 28.62 0 0 1 -27.67 2.45 27.555 27.555 0 0 1 -12.12 24.58 28.6 28.6 0 0 1 -30.14 1.21l-2.58 1.75a27.6 27.6 0 0 1 -11.66 17.56 28.55 28.55 0 0 1 -37.37-4.68 32.557 32.557 0 0 1 -37.81-11.69 31.3 31.3 0 0 1 2.26-38.91 27.472 27.472 0 0 1 8.77-36.04 28.519 28.519 0 0 1 20.82-4.51l2.58-1.75a27.556 27.556 0 0 1 11.81-27.3 28.616 28.616 0 0 1 27.68-2.45 27.56 27.56 0 0 1 12.12-24.59 28.616 28.616 0 0 1 30.14-1.2l2.24-1.52a48.977 48.977 0 0 1 45.47-5.02l58.41-39.4 153.22-103.33a27.464 27.464 0 0 1 34.76 3.35z" fill="#e0e0de"/><path d="m483.31 106.76-103.33 153.22-39.4 58.41a49 49 0 0 1 -5.02 45.48l-1.52 2.23a28.616 28.616 0 0 1 -1.2 30.14 27.56 27.56 0 0 1 -24.59 12.12 28.616 28.616 0 0 1 -2.45 27.68 27.556 27.556 0 0 1 -27.3 11.81l-1.75 2.58a28.519 28.519 0 0 1 -4.51 20.82 27.472 27.472 0 0 1 -36.04 8.77 31.3 31.3 0 0 1 -38.91 2.26 32.557 32.557 0 0 1 -11.69-37.81 28.55 28.55 0 0 1 -4.68-37.37 27.6 27.6 0 0 1 17.56-11.66l1.75-2.58a28.6 28.6 0 0 1 1.21-30.14 27.555 27.555 0 0 1 24.58-12.12 28.62 28.62 0 0 1 2.45-27.67 27.545 27.545 0 0 1 27.3-11.81l1.52-2.24a47.319 47.319 0 0 1 36.76-20.81l45.93-68.09 103.33-153.22a27.464 27.464 0 0 0 -3.35-34.76l40 40a27.464 27.464 0 0 1 3.35 34.76z" fill="#d6d6d4"/><path d="m483.31 106.76-103.33 153.22-40-40 103.33-153.22a27.464 27.464 0 0 0 -3.35-34.76l40 40a27.464 27.464 0 0 1 3.35 34.76z" fill="#ab3321"/><path d="m480 72.04a27.464 27.464 0 0 0 -34.76-3.35l-153.22 103.33-40-40 153.22-103.33a27.464 27.464 0 0 1 34.76 3.35z" fill="#f35244"/><path d="m71.185 215.666h192.296v16h-192.296z" fill="#f2f2f2" transform="matrix(.832 -.555 .555 .832 -95.964 130.384)"/><path d="m192.851 338h192.296v16h-192.296z" fill="#ebebe9" transform="matrix(.555 -.832 .832 .555 -159.198 394.536)"/></g></svg>